<svg viewBox="0 0 800 400" xmlns="http://www.w3.org/2000/svg" preserveAspectRatio="xMidYMid slice">
    <defs>
        <linearGradient id="scaffoldGrad" x1="0%" y1="100%" x2="0%" y2="0%">
            <stop offset="0%" style="stop-color:#16a34a;stop-opacity:0.1" />
            <stop offset="100%" style="stop-color:#16a34a;stop-opacity:0.4" />
        </linearGradient>
    </defs>
    
    <!-- Background Elements -->
    <circle cx="400" cy="350" r="300" fill="#f0fdf4" opacity="0.5" />
    
    <!-- Book Base -->
    <g transform="translate(250, 280)">
        <!-- Left Page -->
        <path d="M0,80 Q75,90 150,80 L150,20 Q75,30 0,20 Z" fill="#fff" stroke="#166534" stroke-width="2" />
        <path d="M0,80 Q75,90 150,80" fill="none" stroke="#166534" stroke-width="2" />
        <!-- Right Page -->
        <path d="M150,80 Q225,90 300,80 L300,20 Q225,30 150,20 Z" fill="#fff" stroke="#166534" stroke-width="2" />
        
        <!-- Page details/text lines -->
        <line x1="20" y1="40" x2="130" y2="40" stroke="#dcfce7" stroke-width="2" />
        <line x1="20" y1="50" x2="130" y2="50" stroke="#dcfce7" stroke-width="2" />
        <line x1="20" y1="60" x2="100" y2="60" stroke="#dcfce7" stroke-width="2" />
        
        <line x1="170" y1="40" x2="280" y2="40" stroke="#dcfce7" stroke-width="2" />
        <line x1="170" y1="50" x2="280" y2="50" stroke="#dcfce7" stroke-width="2" />
        <line x1="170" y1="60" x2="250" y2="60" stroke="#dcfce7" stroke-width="2" />
    </g>

    <!-- Scaffolding (Augmentation) -->
    <g stroke="#15803d" stroke-width="1.5" fill="none" stroke-linecap="round">
        <!-- Left Side Scaffolding -->
        <path d="M280,280 L280,100" stroke-dasharray="4 4" />
        <path d="M320,280 L320,80" />
        <path d="M280,180 L320,180" />
        <path d="M280,140 L320,140" />
        <path d="M280,220 L320,220" />
        <path d="M280,100 L320,80" /> <!-- Diagonal connection -->
        
        <!-- Right Side Scaffolding (Higher) -->
        <path d="M480,280 L480,60" />
        <path d="M520,280 L520,40" stroke-dasharray="4 4" />
        <path d="M480,160 L520,160" />
        <path d="M480,110 L520,110" />
        <path d="M480,210 L520,210" />
        <path d="M480,60 L520,40" />

        <!-- Connecting Bridge -->
        <path d="M320,80 L480,60" stroke="#16a34a" stroke-width="2" />
        
        <!-- Abstract Nodes -->
        <circle cx="320" cy="80" r="3" fill="#15803d" />
        <circle cx="480" cy="60" r="3" fill="#15803d" />
        <circle cx="280" cy="140" r="2" fill="#15803d" />
        <circle cx="520" cy="110" r="2" fill="#15803d" />
    </g>
    
    <!-- Floating Elements (Particles/Knowledge) -->
    <circle cx="350" cy="50" r="4" fill="#4ade80" opacity="0.6" />
    <circle cx="450" cy="90" r="6" fill="#4ade80" opacity="0.4" />
    <circle cx="400" cy="150" r="2" fill="#4ade80" opacity="0.8" />
</svg>