<svg viewBox="0 0 800 400" xmlns="http://www.w3.org/2000/svg" preserveAspectRatio="xMidYMid slice">
    <defs>
        <linearGradient id="scaffoldGrad" x1="0%" y1="100%" x2="0%" y2="0%">
            <stop offset="0%" style="stop-color:#16a34a;stop-opacity:0.1" />
            <stop offset="100%" style="stop-color:#16a34a;stop-opacity:0.4" />
        </linearGradient>
    </defs>
    
    <!-- Background Elements -->
    <circle cx="400" cy="350" r="300" fill="#f0fdf4" opacity="0.5" />
    
    <!-- Book Base -->
    <g transform="translate(250, 280)">
        <!-- Left Page -->
        <path d="M0,80 Q75,90 150,80 L150,20 Q75,30 0,20 Z" fill="#fff" stroke="#166534" stroke-width="2" />
        <path d="M0,80 Q75,90 150,80" fill="none" stroke="#166534" stroke-width="2" />
        <!-- Right Page -->
        <path d="M150,80 Q225,90 300,80 L300,20 Q225,30 150,20 Z" fill="#fff" stroke="#166534" stroke-width="2" />
        
        <!-- Page details/text lines -->
        <line x1="20" y1="40" x2="130" y2="40" stroke="#dcfce7" stroke-width="2" />
        <line x1="20" y1="50" x2="130" y2="50" stroke="#dcfce7" stroke-width="2" />
        <line x1="20" y1="60" x2="100" y2="60" stroke="#dcfce7" stroke-width="2" />
        
        <!-- Right Page: Lines shifting into star pattern/expanding outward -->
        <!-- Top expanding line -->
        <path d="M 170,42 Q 225,35 280,28" stroke="#dcfce7" stroke-width="2" stroke-linecap="round" />
        
        <!-- New Small intermediate line -->
        <path d="M 170,46 Q 210,44 240,41" stroke="#dcfce7" stroke-width="1" stroke-linecap="round" opacity="0.8" />
        
        <!-- Middle straight line -->
        <path d="M 170,50 L 280,50" stroke="#dcfce7" stroke-width="2" stroke-linecap="round" />
        
        <!-- New Small intermediate line -->
        <path d="M 170,54 Q 200,56 230,59" stroke="#dcfce7" stroke-width="1" stroke-linecap="round" opacity="0.8" />
        
        <!-- Bottom expanding line -->
        <path d="M 170,58 Q 210,65 260,72" stroke="#dcfce7" stroke-width="2" stroke-linecap="round" />
    </g>

    <!-- Scaffolding (Augmentation) -->
    <g stroke="#15803d" stroke-width="1.5" fill="none" stroke-linecap="round">
        <!-- Left Side Scaffolding -->
        <path d="M280,280 L280,100" stroke-dasharray="4 4" />
        <path d="M320,280 L320,80" />
        <path d="M280,180 L320,180" />
        <path d="M280,140 L320,140" />
        <path d="M280,220 L320,220" />
        <path d="M280,100 L320,80" /> <!-- Diagonal connection -->
        
        <!-- Right Side Scaffolding (Higher) -->
        <path d="M480,280 L480,60" />
        <path d="M520,280 L520,40" stroke-dasharray="4 4" />
        <path d="M480,160 L520,160" />
        <path d="M480,110 L520,110" />
        <path d="M480,210 L520,210" />
        <path d="M480,60 L520,40" />

        <!-- Connecting Bridge -->
        <path d="M320,80 L480,60" stroke="#16a34a" stroke-width="2" />
        
        <!-- Abstract Nodes -->
        <circle cx="320" cy="80" r="3" fill="#15803d" />
        <circle cx="480" cy="60" r="3" fill="#15803d" />
        <circle cx="280" cy="140" r="2" fill="#15803d" />
        <circle cx="520" cy="110" r="2" fill="#15803d" />
    </g>
    
    <!-- Floating Elements (STAR Motif & Bubbles) -->
    <g fill="#4ade80">
        <!-- Original bubbles -->
        <circle cx="350" cy="50" r="3" opacity="0.5" />
        <circle cx="450" cy="90" r="4" opacity="0.3" />
        <circle cx="400" cy="150" r="2" opacity="0.7" />
        
        <!-- New Subtle Stars (Sparkles) -->
        <!-- Star 1 (Left, higher) -->
        <path d="M250 100 L253 108 L261 111 L253 114 L250 122 L247 114 L239 111 L247 108 Z" opacity="0.4" transform="scale(0.8) translate(100,0)" />
        
        <!-- Star 2 (Right, near scaffolding) -->
        <path d="M550 80 L552 86 L558 88 L552 90 L550 96 L548 90 L542 88 L548 86 Z" opacity="0.5" />
        
        <!-- Star 3 (Center top, small) -->
        <path d="M400 30 L401.5 34.5 L406 36 L401.5 37.5 L400 42 L398.5 37.5 L394 36 L398.5 34.5 Z" opacity="0.6" />
        
        <!-- Star 4 (Bottom right floating) -->
        <path d="M500 130 L502 135 L507 137 L502 139 L500 144 L498 139 L493 137 L498 135 Z" opacity="0.3" transform="scale(0.7) translate(200, 50)" />
    </g>
</svg>